<?xml version="1.0" encoding="UTF-8"?>
<!-- Generator: visioncortex VTracer 0.6.2 -->
<svg version="1.1" xmlns="http://www.w3.org/2000/svg" width="1280" height="1280">
<path d="M0 0 C422.4 0 844.8 0 1280 0 C1280 422.4 1280 844.8 1280 1280 C857.6 1280 435.2 1280 0 1280 C0 857.6 0 435.2 0 0 Z " fill="#FC3230" transform="translate(0,0)"/>
<path d="M0 0 C3.08522205 1.73967309 6.24246544 3.15943919 9.47705078 4.60351562 C13.91605889 6.66306369 18.32142708 8.78962695 22.71923828 10.93554688 C39.04179598 18.88217764 55.57371426 26.22237751 72.28955078 33.29101562 C72.92967102 33.56210144 73.56979126 33.83318726 74.22930908 34.11248779 C88.04091353 39.95801092 101.84834042 45.71647387 116.0625 50.52197266 C118.58800763 51.39407845 121.09693367 52.3061553 123.60595703 53.22460938 C148.83685031 62.45911632 174.30566796 71.4063971 200.28955078 78.29101562 C201.77600098 78.68981934 201.77600098 78.68981934 203.29248047 79.09667969 C214.02313134 81.96798627 224.76092623 84.7608145 235.60986328 87.15039062 C236.99797034 87.45969505 238.3860726 87.76902104 239.77416992 88.07836914 C242.45187519 88.67404772 245.13325472 89.24631555 247.81860352 89.80639648 C249.02718018 90.07331299 250.23575684 90.34022949 251.48095703 90.61523438 C252.55547119 90.84299561 253.62998535 91.07075684 254.73706055 91.30541992 C257.28955078 92.29101562 257.28955078 92.29101562 258.44813538 93.91703796 C259.59319531 97.14772126 259.42932693 99.83490947 259.3046875 103.26025391 C259.28204771 103.95892735 259.25940792 104.6576008 259.23608208 105.37744617 C259.1576922 107.70591159 259.06368913 110.0334629 258.96923828 112.36132812 C258.90952939 114.01304043 258.85056482 115.66477979 258.79229736 117.31654358 C258.63192215 121.76043376 258.45636829 126.20359635 258.27622223 130.6467247 C258.16447716 133.4178412 258.05612291 136.18907168 257.94866943 138.96035767 C254.47876082 228.02117269 247.61162446 318.23872454 169.66845703 510.67382812 C167.72049791 512.81690302 166.03938061 514.94658917 164.31567383 517.26318359 C159.81896393 523.06510103 154.68733325 528.18292348 149.49267578 533.35351562 C148.45256988 534.3949735 147.41276061 535.43672769 146.37322998 536.47875977 C144.20468589 538.65023275 142.03261839 540.81809935 139.85791016 542.98339844 C137.10022639 545.72971784 134.35158503 548.48488386 131.60557938 551.24287415 C129.46252935 553.39322816 127.31464344 555.53870158 125.16536713 557.68283081 C124.15143714 558.69544627 123.13893554 559.70949447 122.12802887 560.72512817 C116.2306107 566.64406174 110.17015662 572.20547901 103.62789917 577.41439819 C100.66862637 579.78933212 97.92477955 582.31306485 95.16455078 584.91601562 C91.23325999 588.57409902 87.22381056 592.00550555 82.93408203 595.23632812 C80.76516416 596.92148441 78.6545489 598.64322073 76.55126953 600.40820312 C66.80181519 608.58774299 56.79482011 616.11376027 46.28955078 623.29101562 C44.71259888 624.3741612 43.13577896 625.45749894 41.55908203 626.54101562 C38.34097239 628.74957339 35.11768822 630.9503159 31.89111328 633.14648438 C29.03954733 635.08944577 26.19972255 637.04683207 23.37548828 639.02929688 C15.28987101 644.69361424 7.0511734 650.10851637 -1.27294922 655.41601562 C-2.29670654 656.08036621 -3.32046387 656.7447168 -4.37524414 657.42919922 C-14.46808863 663.79531429 -14.46808863 663.79531429 -19.71044922 663.29101562 C-23.71771112 661.47758933 -27.33825324 659.18212269 -31.02294922 656.79101562 C-32.00457031 656.17742188 -32.98619141 655.56382812 -33.99755859 654.93164062 C-39.60029255 651.40165868 -45.06043553 647.69630528 -50.46557617 643.87207031 C-53.48780273 641.74352881 -56.56247466 639.70118218 -59.64794922 637.66601562 C-74.02656679 628.10693209 -88.17519021 618.40194216 -101.79394531 607.77832031 C-103.57500324 606.3961286 -105.36737756 605.03107755 -107.16748047 603.67382812 C-118.88017478 594.82594593 -129.85411344 585.1620404 -140.71044922 575.29101562 C-147.53990943 569.11461636 -147.53990943 569.11461636 -154.46044922 563.04101562 C-171.0970549 548.50516259 -171.0970549 548.50516259 -177.74951172 540.50195312 C-180.54901628 537.34553961 -183.57620169 534.43369536 -186.58544922 531.47851562 C-191.69448103 526.44543705 -196.31987603 521.29897839 -200.76904297 515.66992188 C-202.4895205 513.5617311 -204.25369024 511.67645765 -206.21044922 509.79101562 C-220.89673928 495.5466741 -230.96798145 477.56591041 -239.71044922 459.29101562 C-240.17725098 458.31729004 -240.64405273 457.34356445 -241.125 456.34033203 C-277.23065573 379.71802658 -285.92900367 286.10478195 -293.61474609 163.42468262 C-293.70329051 161.4506164 -293.7965082 159.4767613 -293.89013672 157.50292969 C-294.89752145 136.10200043 -294.81576165 114.70994493 -294.71044922 93.29101562 C-286.36979079 90.54044252 -277.85902477 88.69585905 -269.29763794 86.79351807 C-207.57711992 72.98102583 -146.93445678 51.92264139 -89.46435547 25.55029297 C-85.41617233 23.69918227 -81.34466042 21.90209885 -77.27294922 20.10351562 C-75.15735449 19.16295433 -73.04251198 18.22071717 -70.92773438 17.27832031 C-69.36536477 16.58263405 -67.80249206 15.88807712 -66.23925781 15.19433594 C-57.93269364 11.50567428 -49.64044527 7.81980802 -41.52294922 3.72851562 C-40.41822266 3.19097656 -39.31349609 2.6534375 -38.17529297 2.09960938 C-35.57813432 0.74393355 -33.22275085 -0.64984951 -30.77685547 -2.23632812 C-18.69577422 -9.62419329 -11.8256245 -6.77624451 0 0 Z " fill="#FDFDFD" transform="translate(653.71044921875,172.708984375)"/>
<path d="M0 0 C1.74579288 0.84277354 3.48649555 1.69615183 5.22265625 2.55859375 C6.14780029 3.00895996 7.07294434 3.45932617 8.02612305 3.92333984 C10.78462415 5.27009964 13.5358775 6.63062203 16.28515625 7.99609375 C17.03635742 8.36750488 17.78755859 8.73891602 18.56152344 9.12158203 C22.50510575 11.0731119 26.43810685 13.04487937 30.36572266 15.02832031 C34.33540379 17.02982324 38.31389899 19.01382086 42.29296875 20.99658203 C45.59808139 22.64511165 48.89570464 24.30582059 52.1796875 25.99609375 C61.55163455 30.79635931 71.10145505 34.96088009 80.83300781 38.97509766 C84.02459976 40.30397435 87.19692656 41.67527449 90.36938477 43.04907227 C114.3722128 53.43193286 138.4875737 63.65205562 163.28515625 71.99609375 C164.04459534 72.2517511 164.80403442 72.50740845 165.58648682 72.77081299 C188.63170176 80.5117649 211.70575915 88.03471119 235.28515625 93.99609375 C236.1865332 94.22554688 237.08791016 94.455 238.01660156 94.69140625 C261.93225699 100.68159682 286.71651618 105.35915763 311.21875 108.10986328 C317.08698332 108.79792082 317.08698332 108.79792082 319.28515625 110.99609375 C319.53239441 114.00022888 319.53239441 114.00022888 319.52807617 117.91967773 C319.52997452 118.63428162 319.53187286 119.3488855 319.53382874 120.08514404 C319.53755745 122.47093405 319.52676972 124.85642393 319.515625 127.2421875 C319.51443004 128.92668116 319.51398071 130.61117549 319.51423645 132.29566956 C319.51266598 135.85609021 319.50435869 139.41641116 319.4909668 142.97680664 C319.47439817 147.42731757 319.47024346 151.87771585 319.47076607 156.32825375 C319.46997014 189.29840629 318.72564805 222.15480237 316.53515625 255.05859375 C316.4054393 257.03345764 316.4054393 257.03345764 316.27310181 259.04821777 C313.44189362 301.94707981 308.77451312 344.49591798 302.28515625 386.99609375 C302.17020813 387.74896667 302.05526001 388.5018396 301.93682861 389.27752686 C293.80447413 442.16318219 282.25318737 497.78281091 258.28515625 545.99609375 C257.61349865 547.38880033 256.94292146 548.78202848 256.2734375 550.17578125 C254.34467801 554.15192768 252.33833377 558.0828982 250.28515625 561.99609375 C249.93485352 562.66624512 249.58455078 563.33639648 249.22363281 564.02685547 C244.07286056 573.78463021 238.22704521 582.4344307 231.28515625 590.99609375 C230.0731792 592.55576914 228.86446631 594.11799068 227.66015625 595.68359375 C226.53657249 597.12220099 225.41154892 598.55968475 224.28515625 599.99609375 C223.66125 600.7953125 223.03734375 601.59453125 222.39453125 602.41796875 C218.25209093 607.66940885 213.9316336 612.69798084 209.42578125 617.640625 C207.57831504 619.67351209 205.76808301 621.72990791 203.97265625 623.80859375 C194.33680568 634.80531615 184.22973793 644.99509093 173.50390625 654.93017578 C171.29256223 656.98919791 169.09874318 659.06525967 166.91015625 661.1484375 C159.83963019 667.87285389 152.7120207 674.46768501 145.25244141 680.75952148 C141.39872246 684.01447987 137.66483491 687.37198217 133.97265625 690.80859375 C129.27397272 695.16391781 124.40677293 699.15068319 119.28515625 702.99609375 C117.80371324 704.1402977 116.32235656 705.28461534 114.8425293 706.4309082 C96.70306793 720.45857607 78.12721753 733.80247583 59.17333984 746.70654297 C57.4095105 747.91116498 55.65357535 749.12651845 53.8984375 750.34375 C42.42802169 758.22036656 30.36615981 765.13931641 18.37304688 772.17822266 C13.32695535 775.14890557 8.31328271 778.17234589 3.30078125 781.19921875 C2.305625 781.7921875 1.31046875 782.38515625 0.28515625 782.99609375 C-0.27365234 783.37701172 -0.83246094 783.75792969 -1.40820312 784.15039062 C-4.5064789 786.16203472 -6.47631993 786.99582605 -10.1953125 787 C-14.21821199 785.85251369 -17.50898692 784.12984863 -21.02734375 781.93359375 C-21.74100098 781.50095215 -22.4546582 781.06831055 -23.18994141 780.62255859 C-25.70568102 779.09226877 -28.20979714 777.54382076 -30.71484375 775.99609375 C-32.78858223 774.7283807 -34.86282844 773.46149794 -36.9375 772.1953125 C-43.54555693 768.15398101 -50.13406977 764.08167483 -56.71484375 759.99609375 C-57.62685547 759.43035645 -58.53886719 758.86461914 -59.47851562 758.28173828 C-69.1079374 752.29543552 -78.5712577 746.12935443 -87.875 739.6484375 C-91.05148663 737.44014593 -94.26837805 735.30144591 -97.50341797 733.18017578 C-104.62637264 728.5041914 -111.41733 723.52651881 -118.10888672 718.25488281 C-120.30480906 716.53366427 -122.52113344 714.83971639 -124.73754883 713.14501953 C-133.86009072 706.16431509 -142.77384067 698.99739545 -151.46801758 691.4909668 C-155.04386641 688.40853945 -158.662174 685.39483433 -162.33984375 682.43359375 C-170.28571935 675.97610488 -177.80047832 669.03167977 -184.96287537 661.71600342 C-186.73768389 659.97367156 -188.57703133 658.35382594 -190.46508789 656.73535156 C-194.44673609 653.27019625 -198.22613664 649.64594013 -201.9609375 645.91796875 C-202.61635025 645.2658844 -203.271763 644.61380005 -203.94703674 643.94195557 C-205.32219421 642.57182136 -206.6960363 641.20036577 -208.06860352 639.82763672 C-210.1386359 637.75978714 -212.21654048 635.7000785 -214.29492188 633.640625 C-221.57185195 626.39427782 -228.36715737 619.07791113 -234.71484375 610.99609375 C-236.62723716 608.72402339 -238.57812885 606.48657466 -240.52734375 604.24609375 C-250.1546517 593.05629553 -259.52747248 581.9589726 -266.71484375 568.99609375 C-267.33093506 567.88717773 -267.33093506 567.88717773 -267.95947266 566.75585938 C-310.66588454 489.10783777 -324.68251609 395.45256665 -337.90234375 244.30859375 C-337.93918274 243.62331604 -337.97602173 242.93803833 -338.01397705 242.23199463 C-338.23702408 237.99100849 -338.43046979 233.74926019 -338.60797119 229.50613403 C-338.6827081 227.75084101 -338.76109123 225.99570116 -338.84222412 224.24069214 C-339.82385015 202.79072968 -339.93469759 181.34706692 -339.95507812 159.87817383 C-339.96066706 154.85930978 -339.9849903 149.84070301 -340.01305008 144.82192135 C-340.03159659 140.92469987 -340.03687672 137.02754334 -340.038414 133.13028145 C-340.04143536 131.27667319 -340.04944642 129.42306593 -340.06259918 127.56950188 C-340.07956685 125.00567501 -340.07780814 122.44252157 -340.07128906 119.87866211 C-340.08050385 119.11992294 -340.08971863 118.36118378 -340.09921265 117.57945251 C-340.0587444 112.52421441 -340.0587444 112.52421441 -338.45275879 110.05793762 C-336.41642192 108.81376183 -334.91758113 108.43498319 -332.55175781 108.12402344 C-331.70991943 108.00641663 -330.86808105 107.88880981 -330.00073242 107.76763916 C-329.08654541 107.65224792 -328.1723584 107.53685669 -327.23046875 107.41796875 C-325.25810698 107.14540682 -323.28577755 106.87261081 -321.31347656 106.59960938 C-320.27727173 106.46079346 -319.24106689 106.32197754 -318.17346191 106.17895508 C-298.03654871 103.46236789 -278.42092213 99.95704488 -258.71484375 94.99609375 C-256.46104622 94.44746985 -254.20714087 93.89928868 -251.953125 93.3515625 C-213.87969672 83.94093419 -175.83143299 71.28292151 -139.71484375 55.99609375 C-137.74621102 55.17289657 -135.77745234 54.35000059 -133.80859375 53.52734375 C-128.27548257 51.20729391 -122.75447776 48.85979171 -117.23779297 46.50097656 C-114.24616161 45.22305448 -111.25207962 43.95108009 -108.25721741 42.68075562 C-92.10403542 35.81946502 -76.20922665 28.54121475 -60.45114136 20.80670166 C-55.61203777 18.43154568 -50.76303095 16.07734889 -45.91015625 13.73046875 C-45.16866837 13.371772 -44.42718048 13.01307526 -43.66322327 12.64350891 C-42.17813641 11.92511855 -40.69303419 11.20675995 -39.20791626 10.48843384 C-36.41976527 9.13968097 -33.63162476 7.79091609 -30.84498596 6.43904114 C-29.55814882 5.81559109 -28.27027901 5.19426734 -26.98130798 4.57524109 C-24.21149778 3.23972027 -21.48195757 1.86813645 -18.78662109 0.38720703 C-11.59183894 -3.55114649 -7.51356857 -3.33192316 0 0 Z M-14.296875 57.1640625 C-15.27688477 57.63835693 -16.25689453 58.11265137 -17.26660156 58.60131836 C-18.34264648 59.12346924 -19.41869141 59.64562012 -20.52734375 60.18359375 C-73.14850443 85.56560996 -126.40015681 108.17319748 -181.71484375 126.99609375 C-182.46654846 127.25259705 -183.21825317 127.50910034 -183.99273682 127.77337646 C-213.99598554 137.99924635 -244.48002991 146.18749765 -275.44995117 152.92871094 C-276.64595947 153.18942383 -277.84196777 153.45013672 -279.07421875 153.71875 C-280.64381348 154.05531616 -280.64381348 154.05531616 -282.24511719 154.39868164 C-284.69829168 154.89432371 -284.69829168 154.89432371 -286.71484375 155.99609375 C-287.01557348 183.87142615 -286.30550013 211.61277356 -284.84765625 239.45037842 C-284.72512714 241.79898437 -284.60605557 244.14773365 -284.48828125 246.49658203 C-281.93060261 296.98143269 -276.71111046 347.24655878 -267.71484375 396.99609375 C-267.49248047 398.23842773 -267.27011719 399.48076172 -267.04101562 400.76074219 C-259.76989884 440.79529417 -250.75665031 483.24271519 -232.71484375 519.99609375 C-232.38887207 520.66866211 -232.06290039 521.34123047 -231.72705078 522.03417969 C-223.74623945 538.47562567 -215.29383728 553.57241282 -202.71484375 566.99609375 C-201.54173315 568.32376103 -200.3746683 569.65680443 -199.21484375 570.99609375 C-195.8168881 574.89745024 -192.35336791 578.73742382 -188.8828125 582.57421875 C-187.0637254 584.60635208 -185.29139694 586.66655497 -183.52734375 588.74609375 C-179.53452247 593.34672154 -175.16752996 597.57148564 -170.83813477 601.85131836 C-167.75448905 604.91188104 -164.76499403 607.98174853 -161.96484375 611.30859375 C-158.77905226 615.05704991 -155.21476495 618.25492843 -151.52734375 621.50390625 C-148.33747493 624.33048446 -145.21267956 627.22099623 -142.08984375 630.12109375 C-138.10045777 633.81350736 -134.09984889 637.48285247 -129.984375 641.03515625 C-128.09729288 642.66564717 -126.22267311 644.30831727 -124.3515625 645.95703125 C-116.92539544 652.47910115 -109.38241914 658.72350852 -101.47949219 664.66113281 C-99.54968108 666.12103972 -97.63538811 667.59982368 -95.72265625 669.08203125 C-82.0993988 679.62107539 -68.09434248 689.51572202 -53.71484375 698.99609375 C-52.55665944 699.76988788 -51.39913884 700.54467608 -50.2421875 701.3203125 C-41.41578075 707.2358705 -32.54001955 713.07064239 -23.58447266 718.7890625 C-21.9300781 719.85713859 -20.29544422 720.9556878 -18.6640625 722.05859375 C-17.81457031 722.61546875 -16.96507812 723.17234375 -16.08984375 723.74609375 C-15.04957031 724.44992187 -15.04957031 724.44992187 -13.98828125 725.16796875 C-10.59204056 726.40508735 -8.05435812 726.14318456 -4.71484375 724.99609375 C-0.74570853 722.94319749 2.97628281 720.55224157 6.72265625 718.12109375 C7.79088623 717.43998535 8.85911621 716.75887695 9.9597168 716.05712891 C17.84954775 710.99940775 25.6112147 705.77678484 33.28076172 700.39257812 C36.24963048 698.32413363 39.24642156 696.29736114 42.24047852 694.265625 C55.9700825 684.9343151 69.59282913 675.56676924 82.140625 664.67578125 C85.44624546 661.82154321 88.88921778 659.16129507 92.34765625 656.49609375 C97.86559773 652.22590506 103.02188707 647.70061049 108.078125 642.89453125 C110.69655323 640.45547525 113.46431612 638.24779396 116.26391602 636.02001953 C122.48201439 630.94343792 128.17329697 625.39945556 133.83203125 619.71484375 C134.89784244 618.65038513 135.96394991 617.58622308 137.03033447 616.52233887 C139.24532128 614.31027297 141.45672186 612.09470246 143.66552734 609.87646484 C146.47473335 607.05583805 149.29286556 604.2443277 152.11375046 601.43538666 C154.31032901 599.24608547 156.50206035 597.05198113 158.69242096 594.85646057 C159.72901599 593.8185467 160.76705599 592.78207358 161.80666351 591.74717712 C167.1896776 586.38323316 172.32992382 580.98325176 176.87719727 574.87684631 C178.95663729 572.09912892 181.24658666 569.54158026 183.53515625 566.93359375 C202.36246415 544.79755841 215.08186657 518.40953652 224.28515625 490.99609375 C224.58824707 490.1153418 224.89133789 489.23458984 225.20361328 488.32714844 C235.40550748 458.55914177 241.65462749 427.89021478 247.28515625 396.99609375 C247.41341797 396.29570984 247.54167969 395.59532593 247.67382812 394.87371826 C254.21611941 359.0627639 258.12069101 322.91956038 261.06768799 286.65563965 C261.27359007 284.13754325 261.48535396 281.6200115 261.69873047 279.10253906 C265.10436234 238.49997517 265.94895075 197.70673526 267.28515625 156.99609375 C263.02183522 154.29526819 259.07915209 153.05371078 254.171875 152.05078125 C252.53152851 151.69772809 250.8912311 151.34444687 249.25097656 150.9909668 C247.96108826 150.71801285 247.96108826 150.71801285 246.6451416 150.43954468 C215.84026457 143.8871941 186.11641553 134.90576133 156.34539795 124.7010498 C154.36818006 124.02450213 152.38973362 123.35171591 150.41064453 122.68066406 C139.05787702 118.82913032 127.75802115 114.93962878 116.671875 110.37109375 C113.76250126 109.18989472 110.83741795 108.08264573 107.88745117 107.0078125 C95.49255379 102.48161256 83.39998346 97.21601564 71.28515625 91.99609375 C70.26244629 91.5563623 69.23973633 91.11663086 68.18603516 90.66357422 C44.4844626 80.44306502 21.15824656 69.3798443 -2.07666016 58.14453125 C-3.38062744 57.51611328 -3.38062744 57.51611328 -4.7109375 56.875 C-5.46560303 56.50963135 -6.22026855 56.1442627 -6.99780273 55.76782227 C-10.01476672 54.41184001 -11.3661288 55.73927653 -14.296875 57.1640625 Z " fill="#FC3230" transform="translate(645.71484375,110.00390625)"/>
<path d="M0 0 C0.91084854 -0.0065712 1.82169708 -0.0131424 2.76014709 -0.01991272 C5.77637817 -0.03963556 8.79255957 -0.05130406 11.80883789 -0.0612793 C13.35281344 -0.06739259 13.35281344 -0.06739259 14.92798042 -0.07362938 C20.37255783 -0.09448251 25.81711005 -0.10878937 31.26171875 -0.11816406 C36.89221363 -0.12924671 42.52231529 -0.16367024 48.15267086 -0.20333576 C52.47718557 -0.22943881 56.80160552 -0.23785012 61.12619209 -0.24144554 C63.20227283 -0.24632527 65.27834895 -0.25797844 67.35435295 -0.27648354 C70.25608738 -0.30074801 73.15678962 -0.29993358 76.05859375 -0.29296875 C77.34840652 -0.31218384 77.34840652 -0.31218384 78.66427612 -0.33178711 C79.85241661 -0.32137138 79.85241661 -0.32137138 81.06455994 -0.31074524 C81.75016463 -0.31313359 82.43576933 -0.31552195 83.14214993 -0.31798267 C86.0636348 0.4229013 87.26520684 1.82599645 89.09399414 4.17700195 C89.60180283 6.57451248 89.60180283 6.57451248 89.61297607 9.28961182 C89.62688889 10.32163727 89.6408017 11.35366272 89.65513611 12.41696167 C89.65010574 13.54337067 89.64507538 14.66977966 89.63989258 15.83032227 C89.65023026 17.02084198 89.66056793 18.21136169 89.67121887 19.43795776 C89.69565204 22.69810047 89.70248361 25.95771075 89.70149899 29.21792698 C89.70462819 32.62663328 89.73024645 36.03516874 89.753479 39.44378662 C89.79404223 45.89644039 89.81438038 52.34899309 89.8274529 58.80175471 C89.84332193 66.14883581 89.88173705 73.4957449 89.92204618 80.84272623 C90.00444942 95.95409448 90.05853879 111.06544516 90.09399414 126.17700195 C90.72513783 126.17846851 91.35628153 126.17993507 92.00655079 126.18144608 C107.35457975 126.21847702 122.7023433 126.27744195 138.0501833 126.36090469 C145.47226137 126.40073603 152.89423278 126.43310759 160.31640625 126.44799805 C166.78461796 126.46099349 173.25259539 126.4879037 179.72067517 126.53161502 C183.14642121 126.55427785 186.5718778 126.56990979 189.99770546 126.5688858 C193.81951359 126.56800392 197.64072825 126.59818431 201.46240234 126.63110352 C203.17143486 126.62355797 203.17143486 126.62355797 204.91499329 126.61585999 C205.95405823 126.6297728 206.99312317 126.64368561 208.06367493 126.65802002 C208.96795384 126.66170719 209.87223276 126.66539436 210.80391407 126.66919327 C213.09399414 127.17700195 213.09399414 127.17700195 214.88500023 128.94768715 C216.18498907 131.34479133 216.4688483 132.66430356 216.46821594 135.36502075 C216.47523026 136.19221619 216.48224457 137.01941162 216.48947144 137.87167358 C216.4818277 138.77052277 216.47418396 139.66937195 216.46630859 140.59545898 C216.46995926 141.54868042 216.47360992 142.50190186 216.47737122 143.48400879 C216.48547681 146.63445859 216.4718683 149.78439418 216.45727539 152.93481445 C216.45675687 155.12149048 216.45727425 157.30816697 216.45878601 159.49484253 C216.45869629 164.07630374 216.44826586 168.65758896 216.43017578 173.23901367 C216.40746193 179.12180002 216.40694941 185.00432975 216.41369343 190.8871479 C216.41702859 195.40117692 216.41041231 199.91514703 216.40056419 204.42916489 C216.3967061 206.59897428 216.39556649 208.76879021 216.39715004 210.93860245 C216.39751937 213.96497426 216.38493859 216.99101215 216.36865234 220.01733398 C216.37236847 221.37168045 216.37236847 221.37168045 216.37615967 222.75338745 C216.32273727 228.94825882 216.32273727 228.94825882 214.09399414 231.17700195 C211.98498726 231.43592167 211.98498726 231.43592167 209.32473755 231.44874573 C208.31807037 231.45846405 207.3114032 231.46818237 206.27423096 231.47819519 C205.16561707 231.47878433 204.05700317 231.47937347 202.91479492 231.47998047 C201.75049957 231.4884198 200.58620422 231.49685913 199.3866272 231.5055542 C195.52084976 231.53143685 191.6551488 231.54349766 187.78930664 231.5559082 C185.1113059 231.57207336 182.433326 231.58910859 179.75534058 231.60740662 C173.41365775 231.64908776 167.07196708 231.68148502 160.73021209 231.70988077 C149.37773389 231.7608018 138.02532475 231.82305167 126.67296207 231.89522117 C122.04591603 231.92414418 117.41887733 231.94428943 112.79177856 231.96253967 C110.37184529 231.97594626 107.95191316 231.98956105 105.53198242 232.00341797 C104.42741699 232.00603134 103.32285156 232.00864471 102.18481445 232.01133728 C101.17250763 232.01823578 100.16020081 232.02513428 99.11721802 232.03224182 C98.23858156 232.03609674 97.35994511 232.03995165 96.4546833 232.04392338 C93.79020601 232.12010231 93.79020601 232.12010231 90.09399414 233.17700195 C89.59899414 294.55700195 89.59899414 294.55700195 89.09399414 357.17700195 C85.66062248 358.89368778 81.71321949 358.3334562 77.93432617 358.33813477 C76.98460937 358.34309967 76.03489258 358.34806458 75.05639648 358.35317993 C71.90485925 358.36782229 68.75337234 358.37460684 65.60180664 358.38012695 C63.41706337 358.38587649 61.23232013 358.39163424 59.0475769 358.3973999 C54.46262374 358.40791565 49.87768814 358.41375463 45.29272461 358.41723633 C39.41229357 358.4227237 33.53209377 358.44675463 27.65173531 358.47520828 C23.13763751 358.49381409 18.62359565 358.49903916 14.10946274 358.5005722 C11.94129038 358.50360367 9.77311913 358.51164875 7.60498428 358.52475739 C4.57395992 358.5417755 1.54350367 358.53994796 -1.48754883 358.53344727 C-2.38639801 358.54266205 -3.28524719 358.55187683 -4.21133423 358.56137085 C-5.03852966 358.5558017 -5.8657251 358.55023254 -6.71798706 358.54449463 C-7.43438795 358.54596119 -8.15078884 358.54742775 -8.88889885 358.54893875 C-11.62263422 358.04486198 -12.95280388 357.14738889 -14.90600586 355.17700195 C-15.41102123 352.92374325 -15.41102123 352.92374325 -15.41825867 350.23606873 C-15.43072632 349.21672241 -15.44319397 348.1973761 -15.45603943 347.1471405 C-15.44943802 346.02962906 -15.44283661 344.91211761 -15.43603516 343.76074219 C-15.44476654 342.58333466 -15.45349792 341.40592712 -15.4624939 340.19284058 C-15.48272804 336.96347988 -15.48537038 333.73466554 -15.48057914 330.50526309 C-15.47998633 327.12819094 -15.50266755 323.75128125 -15.52314758 320.37428284 C-15.55857835 313.97709119 -15.57457906 307.58001319 -15.58292276 301.18273455 C-15.59587874 291.78765145 -15.63412774 282.39266337 -15.67702198 272.99767399 C-15.68016067 272.30942569 -15.68329935 271.62117739 -15.68653315 270.91207308 C-15.69281298 269.54010026 -15.69915655 268.16812773 -15.70556575 266.79615551 C-15.72657472 262.12242885 -15.73630029 257.44877873 -15.74284363 252.77500916 C-15.74985721 250.33796157 -15.75695793 247.90091423 -15.76416016 245.46386719 C-15.76363144 244.34433151 -15.76310272 243.22479584 -15.76255798 242.07133484 C-15.76656616 241.05480835 -15.77057434 240.03828186 -15.77470398 238.99095154 C-15.77596126 238.10439597 -15.77721853 237.2178404 -15.77851391 236.30441952 C-15.7694469 234.12269702 -15.7694469 234.12269702 -16.90600586 232.17700195 C-17.8449908 232.17203673 -17.8449908 232.17203673 -18.80294514 232.16697121 C-34.02572836 232.08579581 -49.24840314 231.99372143 -64.47104359 231.88947487 C-71.83256255 231.83932586 -79.19407025 231.79288326 -86.55566406 231.75512695 C-92.97107686 231.72221408 -99.38640282 231.68238687 -105.80171984 231.6342119 C-109.1994472 231.60893978 -112.5971169 231.58716069 -115.9949131 231.57365799 C-119.78547337 231.55685774 -123.57575277 231.52783748 -127.36621094 231.49584961 C-128.49621521 231.49368942 -129.62621948 231.49152924 -130.79046631 231.48930359 C-131.8211171 231.47814011 -132.85176788 231.46697662 -133.91365051 231.45547485 C-134.81055509 231.4499441 -135.70745966 231.44441334 -136.63154316 231.43871498 C-138.90600586 231.17700195 -138.90600586 231.17700195 -141.90600586 229.17700195 C-142.20794716 226.0535434 -142.31518004 223.12780892 -142.29418945 220.00146484 C-142.29944641 219.05014175 -142.30470337 218.09881866 -142.31011963 217.1186676 C-142.32336383 213.96216594 -142.31456515 210.80616533 -142.30444336 207.6496582 C-142.30646299 205.46251834 -142.3093735 203.27537913 -142.31314087 201.08824158 C-142.31757036 196.49902958 -142.31111364 191.90999249 -142.29711914 187.32080078 C-142.28003711 181.4312626 -142.28985846 175.54213481 -142.30783653 169.65261173 C-142.31866606 165.13424069 -142.31523165 160.61596726 -142.30745316 156.09759331 C-142.30544833 153.92581573 -142.30792028 151.75402935 -142.31489182 149.58226204 C-142.3224914 146.54857974 -142.31092231 143.51556597 -142.29418945 140.48193359 C-142.30026215 139.57948914 -142.30633484 138.67704468 -142.31259155 137.74725342 C-142.30413208 136.92143265 -142.29567261 136.09561188 -142.28695679 135.24476624 C-142.28582571 134.52744355 -142.28469463 133.81012087 -142.28352928 133.07106113 C-141.7936474 130.61329235 -140.82165338 129.74219609 -138.90600586 128.17700195 C-136.44790076 126.9479494 -134.82151439 127.03870854 -132.0718689 127.01878357 C-131.05100693 127.00899475 -130.03014496 126.99920593 -128.97834778 126.98912048 C-127.85409897 126.98336502 -126.72985016 126.97760956 -125.5715332 126.97167969 C-123.80082207 126.95683029 -123.80082207 126.95683029 -121.99433899 126.94168091 C-118.75283804 126.91546038 -115.51134243 126.89361184 -112.2697978 126.87367892 C-108.88382771 126.85183347 -105.49790272 126.82443775 -102.11196899 126.79762268 C-95.69822858 126.74767627 -89.28446316 126.70274469 -82.87067378 126.65960032 C-75.56964832 126.61024457 -68.26866812 126.55532029 -60.96768641 126.49992073 C-45.94716839 126.38607077 -30.92660776 126.27923831 -15.90600586 126.17700195 C-15.90361751 125.55708752 -15.90122915 124.93717308 -15.89876842 124.29847336 C-15.83964199 109.21717141 -15.76410722 94.13604869 -15.67029095 79.05492783 C-15.62531814 71.76181228 -15.58590699 64.46874573 -15.55957031 57.17553711 C-15.53660215 50.8190467 -15.50321757 44.46271114 -15.4573043 38.10634351 C-15.43335586 34.74041521 -15.41463782 31.37464042 -15.40839195 28.00862885 C-15.39880312 24.25169418 -15.37080528 20.4953225 -15.33837891 16.73852539 C-15.34053154 15.062938 -15.34053154 15.062938 -15.34272766 13.35350037 C-15.32392044 11.81808342 -15.32392044 11.81808342 -15.30473328 10.25164795 C-15.30012431 9.36303951 -15.29551535 8.47443108 -15.29076672 7.55889511 C-14.82199283 4.65691248 -13.92208609 3.29343281 -11.90600586 1.17700195 C-7.9405208 -0.1448264 -4.13523843 0.01290088 0 0 Z " fill="#FC3230" transform="translate(601.906005859375,291.822998046875)"/>
<path d="M0 0 C1.24696246 0.5660598 2.49439383 1.13108732 3.7421875 1.6953125 C11.23313567 5.12079011 18.55722272 8.78959739 25.8125 12.6875 C37.28855484 18.83845258 49.13723134 24.18923989 60.97070312 29.60644531 C63.36850442 30.70949575 65.75858421 31.82444874 68.140625 32.9609375 C79.83122311 38.53436218 91.77624142 43.53449868 103.69482422 48.59570312 C106.53931577 49.80426535 109.38146374 51.01808606 112.22265625 52.234375 C116.801857 54.18875433 121.39557103 56.10587036 126 58 C126.79921875 58.33 127.5984375 58.66 128.421875 59 C182.22677358 81.0566665 239.58726425 98.87280387 297.421875 106.109375 C298.72850098 106.2746167 300.03512695 106.4398584 301.38134766 106.61010742 C303.77414766 106.89925953 306.16967206 107.16717463 308.56787109 107.4074707 C317.34014374 108.4261395 326.1936298 110.79412621 332.30517578 117.54711914 C337.50838971 124.56035905 339.30585064 130.80404726 339.24291992 139.51098633 C339.24481827 140.34642975 339.24671661 141.18187317 339.24867249 142.04263306 C339.25237453 144.80586154 339.24165978 147.568826 339.23046875 150.33203125 C339.22927346 152.28464223 339.22882452 154.23725379 339.2290802 156.18986511 C339.22751478 160.29970876 339.21923871 164.4094654 339.20581055 168.51928711 C339.18912023 173.68269161 339.1850851 178.84599895 339.18561649 184.00942707 C339.18489163 215.6150033 338.69990241 247.13751327 336.6875 278.6875 C336.62408417 279.70207275 336.56066833 280.71664551 336.49533081 281.76196289 C333.54798622 328.66235895 328.51895231 375.12763247 321.37310791 421.56829834 C321.01914031 423.87525453 320.66996921 426.18288883 320.32177734 428.49072266 C307.53088333 512.67802894 281.67757203 595.48979154 224.01171875 659.7421875 C222.86536733 661.0287722 221.72538635 662.32126866 220.60572815 663.63114929 C215.80904859 669.2123202 210.71442391 674.446723 205.515625 679.65234375 C204.61938416 680.55191299 203.72314331 681.45148224 202.79974365 682.37831116 C200.91173948 684.27135354 199.02265556 686.16324414 197.13183594 688.0534668 C194.73905384 690.44614753 192.35322036 692.84562765 189.96912003 695.24695492 C187.65587128 697.57416139 185.33527119 699.89401663 183.015625 702.21484375 C182.17565979 703.06199448 181.33569458 703.9091452 180.47027588 704.78196716 C175.38312068 709.84997581 170.10878827 714.49344195 164.47528076 718.94801331 C162.04339777 720.96402362 159.86572314 723.09009217 157.6875 725.375 C152.94012282 730.25899235 147.65919227 734.29848723 142.27734375 738.4453125 C139.77026978 740.3816647 137.35691878 742.38130742 135 744.5 C130.9336981 748.13964495 126.63940184 751.46660091 122.33496094 754.81689453 C118.75212085 757.60915041 115.23173503 760.45656571 111.75 763.375 C101.67524474 771.66133717 90.97264177 779.29309083 79.875 786.14453125 C76.13797612 788.55633335 72.54987627 791.15668722 68.9375 793.75 C60.22391654 799.96735369 51.19996272 805.53746497 42 811 C40.20176536 812.07542459 38.40359038 813.15094896 36.60546875 814.2265625 C25.78344599 820.67926338 14.89864059 826.99695622 3.81542969 832.99121094 C2.25884725 833.85616503 0.73831347 834.78544429 -0.7734375 835.7265625 C-7.94721655 839.99269689 -15.90428427 840.45791066 -24 839 C-28.27875874 837.56037074 -32.0199224 835.55090464 -35.89111328 833.24121094 C-38.30569884 831.82007723 -40.75601532 830.47591828 -43.21484375 829.1328125 C-55.95152498 822.12998777 -68.27274285 814.56647179 -80.45898438 806.65039062 C-82.87990995 805.07799853 -85.30604384 803.51404891 -87.734375 801.953125 C-91.8323419 799.31644515 -95.91815381 796.66154498 -100 794 C-101.01707031 793.34 -102.03414062 792.68 -103.08203125 792 C-110.74073555 786.97102864 -118.14705507 781.61080202 -125.5546875 776.22265625 C-128.23463748 774.27417362 -130.92249035 772.3395964 -133.6328125 770.43359375 C-149.92646246 758.97306379 -165.76439737 746.67415445 -180.4765625 733.23828125 C-183.04393723 730.96102781 -185.68911269 728.82312673 -188.375 726.6875 C-193.14753689 722.8330183 -197.44252441 718.67117001 -201.73217773 714.30151367 C-204.98750736 710.99010328 -208.32840628 707.87922319 -211.8515625 704.859375 C-226.36048305 692.30256376 -240.97357963 678.90285159 -252.765625 663.73828125 C-255.69946604 660.14278725 -258.87251012 656.80531307 -262.0625 653.4375 C-267.34605232 647.82911633 -272.38266557 642.17920542 -277 636 C-277.47260254 635.37287109 -277.94520508 634.74574219 -278.43212891 634.09960938 C-301.25002074 603.69447022 -315.74597474 569.82714282 -328 534 C-328.40089844 532.85055908 -328.80179687 531.70111816 -329.21484375 530.5168457 C-332.75345673 520.19797762 -335.62847344 509.74202123 -338.375 499.1875 C-338.61366791 498.27370575 -338.85233582 497.3599115 -339.09823608 496.41842651 C-343.70200032 478.72696891 -347.66384745 460.9716332 -351 443 C-351.13021545 442.30211365 -351.26043091 441.60422729 -351.39459229 440.88519287 C-360.08396992 394.17260594 -365.48347224 346.76669332 -368.6875 299.375 C-368.7423053 298.56649597 -368.7971106 297.75799194 -368.85357666 296.92498779 C-369.20084606 291.71354173 -369.50876871 286.50044655 -369.80529785 281.28588867 C-369.98353897 278.27780448 -370.17844538 275.27114484 -370.37711048 272.2643528 C-372.14086568 245.22220719 -372.37540819 218.20597557 -372.37060547 191.11279297 C-372.37039882 184.9043324 -372.39815287 178.69631195 -372.43214989 172.487957 C-372.45438411 167.6442661 -372.45844474 162.80068404 -372.45738602 157.95694733 C-372.4597297 155.66534092 -372.4684828 153.37373094 -372.48405075 151.08217621 C-372.50372281 147.90048777 -372.49787694 144.71979149 -372.48583984 141.53808594 C-372.49707886 140.6145079 -372.50831787 139.69092987 -372.51989746 138.73936462 C-372.43203861 129.56518098 -369.75605332 122.05670599 -363.171875 115.5703125 C-357.41086341 111.40497678 -351.7014939 109.39914021 -344.69921875 108.54296875 C-343.52784615 108.38067528 -343.52784615 108.38067528 -342.33280945 108.21510315 C-340.65781833 107.9832159 -338.98204563 107.75691623 -337.30560303 107.5357666 C-332.79843878 106.93621236 -328.299776 106.27877184 -323.80078125 105.62109375 C-322.88687622 105.48784698 -321.97297119 105.35460022 -321.03137207 105.21731567 C-277.64998011 98.80911766 -235.4980276 86.41017863 -194.0625 72.3125 C-193.07603485 71.97884933 -193.07603485 71.97884933 -192.06964111 71.63845825 C-183.9056478 68.86806829 -175.95587672 65.77837832 -168.0612793 62.32348633 C-164.5360778 60.79943199 -160.99293388 59.47378575 -157.375 58.1875 C-146.6752384 54.28488796 -136.3749102 49.43770714 -126.05859375 44.62890625 C-120.83705379 42.20671516 -115.55239022 40.00192329 -110.21289062 37.85522461 C-101.28910937 34.26242614 -92.57407523 30.50163474 -84.03149414 26.07788086 C-80.21824582 24.10581538 -76.38249295 22.1819405 -72.5390625 20.26953125 C-67.64231112 17.82812199 -62.75343687 15.37252576 -57.87844849 12.88792419 C-55.18142721 11.51401726 -52.48098294 10.14691322 -49.78027344 8.78027344 C-48.41817005 8.08906657 -47.05750518 7.39501812 -45.69824219 6.69824219 C-30.13923116 -1.27028419 -16.86737694 -7.96140192 0 0 Z M-22.9296875 25.23828125 C-23.87835693 25.72329102 -24.82702637 26.20830078 -25.80444336 26.70800781 C-26.81772705 27.23749023 -27.83101074 27.76697266 -28.875 28.3125 C-31.03947314 29.41971316 -33.20486151 30.52513869 -35.37109375 31.62890625 C-37.02407471 32.47412842 -37.02407471 32.47412842 -38.71044922 33.33642578 C-43.74956915 35.88478286 -48.83812775 38.32498239 -53.9375 40.75 C-54.89060059 41.20383057 -55.84370117 41.65766113 -56.82568359 42.12524414 C-59.54911389 43.41968506 -62.27410983 44.7107483 -65 46 C-65.7955127 46.37640625 -66.59102539 46.7528125 -67.41064453 47.140625 C-71.63703383 49.13845578 -75.86772682 51.12689101 -80.1015625 53.10888672 C-81.9032635 53.95459256 -83.70172884 54.80718165 -85.5 55.66015625 C-97.55746522 61.35246405 -109.75693545 66.72033299 -122 72 C-122.65393738 72.28248596 -123.30787476 72.56497192 -123.98162842 72.85601807 C-170.86479735 93.08538003 -219.28019257 110.20429608 -269 122 C-270.23814453 122.30099609 -271.47628906 122.60199219 -272.75195312 122.91210938 C-291.51605488 127.44137532 -310.27935568 130.55195001 -329.42895508 132.95947266 C-330.30910278 133.0745517 -331.18925049 133.18963074 -332.09606934 133.30819702 C-333.75385317 133.52444264 -335.41304023 133.73027279 -337.0736084 133.92398071 C-341.07723124 134.42879708 -341.07723124 134.42879708 -344.70724487 136.07395935 C-346.70830638 139.05528639 -346.4086347 142.12814462 -346.37231445 145.59692383 C-346.37591413 146.37292246 -346.37951382 147.14892109 -346.38322258 147.94843483 C-346.39124216 150.5348455 -346.37750556 153.1206543 -346.36328125 155.70703125 C-346.36352389 157.52873277 -346.3648719 159.35043444 -346.36726379 161.1721344 C-346.36901951 166.04525001 -346.35037754 170.91808145 -346.32621002 175.79113007 C-346.31252244 178.80755383 -346.30416678 181.82394607 -346.29754639 184.84039307 C-346.23272133 212.85984453 -345.86886038 240.81077303 -344.1328125 268.78344727 C-343.91853396 272.35961426 -343.7426017 275.93760636 -343.5625 279.515625 C-341.57915633 317.85979523 -337.44720741 356.00294553 -332 394 C-331.82531189 395.22212189 -331.82531189 395.22212189 -331.64709473 396.46893311 C-326.19700169 434.36919573 -318.7287843 472.2299138 -308 509 C-307.66709961 510.16837402 -307.33419922 511.33674805 -306.99121094 512.54052734 C-299.78563977 537.69172718 -290.7289952 563.05710791 -278 586 C-277.59072266 586.74991211 -277.18144531 587.49982422 -276.75976562 588.27246094 C-270.94571 598.86931999 -264.78218892 608.73507808 -257 618 C-256.53480957 618.55461914 -256.06961914 619.10923828 -255.59033203 619.68066406 C-252.6091468 623.21665055 -249.58886755 626.71740972 -246.55419922 630.20751953 C-243.91626585 633.2498863 -241.30368709 636.31393672 -238.6875 639.375 C-236.79636138 641.58741692 -234.89976245 643.79498566 -233 646 C-232.48499939 646.60062759 -231.96999878 647.20125519 -231.43939209 647.82008362 C-227.39553408 652.49629762 -223.19421691 656.95296137 -218.81640625 661.31640625 C-218.15720688 661.97656235 -217.49800751 662.63671844 -216.8188324 663.31687927 C-215.43603165 664.70035506 -214.05198924 666.08259083 -212.66674805 667.46362305 C-210.56769657 669.55731669 -208.4740406 671.65629874 -206.38085938 673.75585938 C-205.02636214 675.10969571 -203.67155469 676.46322175 -202.31640625 677.81640625 C-201.70156876 678.43326797 -201.08673126 679.0501297 -200.45326233 679.6856842 C-196.67253595 683.44646322 -192.77182835 687.01422302 -188.727005 690.48974609 C-186.5785615 692.36854505 -184.59719639 694.37565832 -182.625 696.4375 C-178.91209155 700.19460974 -175.01525393 703.47283633 -170.8515625 706.71484375 C-167.39577583 709.48420704 -164.07798908 712.39195909 -160.75 715.3125 C-154.24672149 720.99723558 -147.56028308 726.38347819 -140.72509766 731.66162109 C-138.99995912 733.00003172 -137.28551319 734.35097558 -135.57421875 735.70703125 C-118.7072984 749.13822985 -118.7072984 749.13822985 -100.85546875 761.19140625 C-98.09980104 762.93678812 -95.43076421 764.76750878 -92.75952148 766.63769531 C-74.96796135 779.08621011 -56.23565343 790.186791 -37.64501953 801.38964844 C-35.08919627 802.94569516 -32.55655688 804.53397217 -30.02734375 806.1328125 C-28.518362 807.06792272 -27.00925547 808.00283162 -25.5 808.9375 C-24.83621338 809.36909424 -24.17242676 809.80068848 -23.48852539 810.24536133 C-20.43438951 812.1102692 -18.24243593 812.9923709 -14.6484375 813.10546875 C-9.63898674 811.5876159 -5.5578666 809.12090682 -1.125 806.375 C-0.17681396 805.80031982 0.77137207 805.22563965 1.74829102 804.63354492 C3.77993445 803.40205033 5.80891261 802.16614992 7.83544922 800.92626953 C11.03477292 798.97883364 14.2503662 797.06150824 17.47265625 795.15234375 C28.24635206 788.76197985 38.93625586 782.31411824 49.25195312 775.20361328 C51.10485607 773.92780162 52.96591136 772.66452115 54.828125 771.40234375 C70.54267221 760.71738161 85.86462193 749.48752797 101 738 C101.58652344 737.55527344 102.17304687 737.11054687 102.77734375 736.65234375 C113.04256907 728.85449685 123.07607352 720.88057882 132.51318359 712.09057617 C135.80170055 709.04456736 139.18607665 706.17809206 142.6875 703.375 C147.04750741 699.86694806 150.98480306 696.12306186 154.88671875 692.1171875 C156.85675576 690.14350902 158.88237415 688.31272114 161 686.5 C164.79218759 683.24955349 168.27135531 679.74550431 171.77734375 676.19140625 C173.8120595 674.1852981 175.89585437 672.29886484 178.0625 670.4375 C184.20567065 665.14754749 189.75994089 659.39062444 195.03515625 653.2421875 C196.93159286 651.07806301 198.88362161 648.97418281 200.85058594 646.87426758 C206.8451822 640.45193407 212.31740943 633.71892226 217.65917969 626.74804688 C218.97707104 625.02989282 220.30360375 623.31878312 221.6328125 621.609375 C224.1083152 618.42108529 226.5559242 615.21244745 229 612 C229.68835938 611.11054687 230.37671875 610.22109375 231.0859375 609.3046875 C257.31160459 574.57900183 270.8275001 528.7351639 281 487 C281.41548096 485.30496338 281.41548096 485.30496338 281.83935547 483.57568359 C298.4565804 415.33662771 306.18796991 345.48816756 310.625 275.5 C310.68762024 274.53550934 310.75024048 273.57101868 310.8147583 272.57730103 C312.80245484 241.65181918 313.18900854 210.69734325 313.18530273 179.71704102 C313.18519838 175.22856564 313.19919235 170.74023895 313.21607494 166.25179958 C313.2271286 162.75095388 313.22922452 159.25014612 313.22869301 155.74928474 C313.22986992 154.09023558 313.23427547 152.43118534 313.24202538 150.77215385 C313.25175084 148.48918153 313.24898465 146.20656116 313.24291992 143.92358398 C313.24505745 141.9834568 313.24505745 141.9834568 313.24723816 140.00413513 C313.31657216 136.88542155 313.31657216 136.88542155 311 135 C308.94925961 134.46314177 308.94925961 134.46314177 306.5234375 134.17578125 C305.56405273 134.03833496 304.60466797 133.90088867 303.61621094 133.75927734 C302.54661133 133.61184082 301.47701172 133.4644043 300.375 133.3125 C297.99173007 132.96011121 295.60894623 132.60442487 293.2265625 132.24609375 C292.25843628 132.10086273 292.25843628 132.10086273 291.27075195 131.95269775 C225.74867536 122.08565322 162.62339956 102.49045695 101.74145508 76.42822266 C94.84458622 73.47637443 87.94215831 70.54545618 80.99609375 67.7109375 C80.35908035 67.45092957 79.72206696 67.19092163 79.06575012 66.92303467 C78.43779037 66.66677307 77.80983063 66.41051147 77.1628418 66.14648438 C65.84672682 61.52812823 54.81768592 56.68346413 44 51 C41.36041784 49.6541208 38.71239939 48.32543085 36.0625 47 C35.40403076 46.66967773 34.74556152 46.33935547 34.06713867 45.99902344 C28.54616092 43.24223991 22.96746031 40.61777624 17.37548828 38.00878906 C11.09007448 35.06643425 4.88009782 31.98388341 -1.31640625 28.859375 C-1.91598145 28.55966797 -2.51555664 28.25996094 -3.13330078 27.95117188 C-4.45379226 27.27831877 -5.76383549 26.5847739 -7.06591797 25.87695312 C-7.75443848 25.51021484 -8.44295898 25.14347656 -9.15234375 24.765625 C-9.76972412 24.42821289 -10.38710449 24.09080078 -11.02319336 23.74316406 C-15.54408726 22.04357149 -18.78545558 23.08518881 -22.9296875 25.23828125 Z " fill="#FDFDFD" transform="translate(652,84)"/>
<path d="M0 0 C1.19910004 -0.00945648 2.39820007 -0.01891296 3.63363647 -0.02865601 C5.5834996 -0.01954697 5.5834996 -0.01954697 7.57275391 -0.01025391 C8.92737993 -0.01227703 10.28200489 -0.01519045 11.6366272 -0.01895142 C14.48311683 -0.02337867 17.32932442 -0.01694127 20.17578125 -0.00292969 C23.78764054 0.01399996 27.39882298 0.00442864 31.01065636 -0.01364708 C33.81463485 -0.02461475 36.61845963 -0.02097729 39.42244339 -0.0132637 C41.39014378 -0.01033952 43.3578506 -0.01931832 45.32553101 -0.02865601 C57.56333456 0.06538311 70.44755038 1.45834859 79.91650391 9.95068359 C81.52457747 11.67876264 82.85714113 13.43043675 84.17431641 15.38818359 C84.58810547 15.98759766 85.00189453 16.58701172 85.42822266 17.20458984 C89.94802103 25.25203573 89.50590368 36.50241026 87.51416016 45.30615234 C84.72747598 52.31508528 79.12663997 57.02836765 73.17431641 61.38818359 C74.03154297 61.80068359 74.88876953 62.21318359 75.77197266 62.63818359 C85.96567165 67.78674859 92.92648518 73.51738969 97.17431641 84.38818359 C100.38309204 95.63801566 98.99721949 109.30873344 93.48681641 119.51318359 C85.53340641 129.40120684 77.89492569 134.52167432 65.17431641 136.38818359 C59.56915891 136.67074775 53.9727505 136.64598717 48.36181641 136.61865234 C46.74039751 136.61745851 45.11897791 136.61700781 43.49755859 136.61726379 C40.11877036 136.61570779 36.74008941 136.60748047 33.36132812 136.59399414 C29.02225406 136.57689626 24.68329632 136.57318337 20.3441925 136.57393932 C17.00546145 136.57366823 13.66675601 136.56819863 10.32803345 136.56093788 C8.72677809 136.55774996 7.12551983 136.55578352 5.52426147 136.55504417 C3.298187 136.55288807 1.07223893 136.54416309 -1.15380859 136.53344727 C-3.05501465 136.52772957 -3.05501465 136.52772957 -4.99462891 136.52189636 C-7.82568359 136.38818359 -7.82568359 136.38818359 -8.82568359 135.38818359 C-8.928433 133.68687461 -8.96089108 131.98128684 -8.96612549 130.27688599 C-8.97183563 129.16917847 -8.97754578 128.06147095 -8.98342896 126.92019653 C-8.98454681 125.69420746 -8.98566467 124.46821838 -8.98681641 123.20507812 C-8.99178131 121.92227966 -8.99674622 120.6394812 -9.00186157 119.31781006 C-9.01500905 115.7888553 -9.02143513 112.25991959 -9.02587223 108.73094416 C-9.0287993 106.52799248 -9.03290341 104.32504606 -9.0373764 102.12209702 C-9.05105778 95.23485434 -9.06072118 88.34762361 -9.06457829 81.46036828 C-9.06906021 73.50030222 -9.08661151 65.54040777 -9.11557889 57.58039391 C-9.13717152 51.43430194 -9.14728128 45.28825834 -9.14861941 39.14212883 C-9.14966923 35.46824233 -9.1556141 31.79451701 -9.17343903 28.12067032 C-9.19292931 24.02369977 -9.18864045 19.9270898 -9.18212891 15.83007812 C-9.19134369 14.60813751 -9.20055847 13.3861969 -9.21005249 12.12722778 C-9.20448334 11.01388062 -9.19891418 9.90053345 -9.19317627 8.75344849 C-9.19464283 7.78409929 -9.19610939 6.8147501 -9.19762039 5.81602669 C-8.82568359 3.38818359 -8.82568359 3.38818359 -7.46690559 1.57666397 C-5.00714961 -0.20455253 -3.00967127 0.00680538 0 0 Z " fill="#FDFDFD" transform="translate(227.82568359375,978.61181640625)"/>
<path d="M0 0 C0.94673584 0.00410889 1.89347168 0.00821777 2.86889648 0.01245117 C3.89563477 0.01438477 4.92237305 0.01631836 5.98022461 0.01831055 C7.05594727 0.03055664 8.13166992 0.04280273 9.23999023 0.05541992 C10.31958008 0.05606445 11.39916992 0.05670898 12.51147461 0.05737305 C20.53734426 0.10277394 20.53734426 0.10277394 21.67749023 1.24291992 C21.78675609 3.98955618 21.83172224 6.71196646 21.83520508 9.45947266 C21.84282616 10.75232933 21.84282616 10.75232933 21.8506012 12.07130432 C21.86133252 13.95106922 21.86994177 15.83084711 21.87672043 17.71063042 C21.88848793 20.69176307 21.90793931 23.67274943 21.92984009 26.65382385 C21.9914991 35.13293533 22.04535147 43.61203562 22.07885742 52.09130859 C22.09988755 57.27324412 22.13526816 62.45491931 22.17961502 67.6367054 C22.19372122 69.60728943 22.20248523 71.57791961 22.2056694 73.54855156 C21.89389665 91.5170112 21.89389665 91.5170112 29.67749023 107.24291992 C37.16449568 114.09964175 45.40318242 114.68681539 55.20874023 114.47729492 C62.83522303 113.96199203 67.81009507 112.63926573 73.17749023 106.99291992 C78.60859361 100.71598897 78.97311315 93.98140083 78.94873047 86.05053711 C78.95657059 84.71023941 78.95657059 84.71023941 78.96456909 83.34286499 C78.9747661 81.41408787 78.98058195 79.48528357 78.98245049 77.55648041 C78.98612551 74.50531742 79.00288016 71.45447611 79.02320862 68.40338135 C79.07853453 59.73276734 79.10939244 51.06210791 79.13378906 42.39135742 C79.14963357 37.07936282 79.17980959 31.76760093 79.21855354 26.45572662 C79.23022054 24.43190218 79.23613404 22.40803623 79.23623466 20.38417816 C79.23642601 17.56177808 79.25463718 14.7400246 79.27685547 11.91772461 C79.27227829 11.07923981 79.26770111 10.240755 79.26298523 9.37686157 C79.33466774 3.6698709 79.33466774 3.6698709 81.05505466 1.52730179 C83.32164079 -0.26701422 84.88351921 -0.1149612 87.74780273 -0.08520508 C88.72620117 -0.08004883 89.70459961 -0.07489258 90.71264648 -0.06958008 C91.73229492 -0.04895508 92.75194336 -0.02833008 93.80249023 -0.00708008 C94.82987305 -0.00192383 95.85725586 0.00323242 96.91577148 0.00854492 C104.5235141 0.08894379 104.5235141 0.08894379 105.67749023 1.24291992 C105.78881512 4.22335227 105.83489492 7.18081997 105.83862305 10.16210938 C105.8460704 11.56719002 105.8460704 11.56719002 105.85366821 13.00065613 C105.86834444 16.1191785 105.87510442 19.23764984 105.88061523 22.35620117 C105.88636664 24.52320863 105.89212437 26.69021608 105.89788818 28.85722351 C105.90841669 33.41458372 105.91424577 37.97192621 105.91772461 42.52929688 C105.92318268 48.34507351 105.94714499 54.16061285 105.97569656 59.9763155 C105.99441252 64.4607153 105.99953352 68.94505931 106.00106049 73.42949486 C106.00407245 75.57151765 106.01205131 77.71353979 106.02524567 79.85552406 C106.12854463 97.9306152 105.19937765 113.17552008 92.28686523 126.91088867 C78.04145289 139.64219282 58.5691898 139.08368913 40.67749023 138.24291992 C26.56239413 137.08688071 14.42701707 131.68990417 4.72436523 121.11401367 C-2.63222024 111.0265745 -4.47430004 98.22438356 -4.46777344 86.05639648 C-4.47113205 85.15165085 -4.47449066 84.24690521 -4.47795105 83.31474304 C-4.48741617 80.33766289 -4.48940139 77.36063916 -4.49047852 74.38354492 C-4.49369228 72.31182838 -4.49705645 70.24011206 -4.50056458 68.168396 C-4.50654334 63.83434522 -4.50840557 59.50031437 -4.5078125 55.16625977 C-4.50771051 49.60191846 -4.52140594 44.03770371 -4.53858471 38.47339249 C-4.54967435 34.19957893 -4.55173271 29.92579638 -4.55120277 25.65196991 C-4.55238582 23.59937857 -4.55682564 21.5467865 -4.56453514 19.49420929 C-4.57428131 16.63333583 -4.57147928 13.77274275 -4.56542969 10.91186523 C-4.57104919 10.05886337 -4.5766687 9.20586151 -4.5824585 8.32701111 C-4.54004801 0.47486048 -4.54004801 0.47486048 0 0 Z " fill="#FDFDFD" transform="translate(953.322509765625,978.757080078125)"/>
<path d="M0 0 C1.921875 1.76171875 1.921875 1.76171875 3.25 3.3125 C3.25 3.9725 3.25 4.6325 3.25 5.3125 C3.91 5.3125 4.57 5.3125 5.25 5.3125 C3.77260227 9.63289013 1.55953519 12.86886154 -1.1875 16.5 C-1.96996094 17.54542969 -2.75242187 18.59085938 -3.55859375 19.66796875 C-5.75 22.3125 -5.75 22.3125 -8.75 24.3125 C-9.35585938 23.85359375 -9.96171875 23.3946875 -10.5859375 22.921875 C-20.72820076 15.4946176 -31.00569957 11.14835717 -43.75 12.3125 C-50.2662759 13.71854168 -56.74538278 15.2710118 -60.5625 21.0625 C-62.11488446 25.31113114 -62.61404608 29.06191158 -60.96191406 33.36523438 C-57.42657547 39.04570589 -49.87008904 40.69797953 -43.765625 42.15625 C-41.17895682 42.72257755 -38.59281459 43.27656587 -36 43.8125 C-19.96859899 47.18328754 -4.43904992 50.45842795 5.1875 64.75 C9.77536848 72.02768262 10.62170287 79.29337945 10.5625 87.6875 C10.55686035 88.52385986 10.5512207 89.36021973 10.54541016 90.22192383 C10.32604852 101.3800466 7.47041519 109.00447333 -0.4140625 117 C-13.2824311 128.7519348 -29.76801243 129.0253219 -46.2890625 128.43359375 C-63.02577538 127.61004121 -78.74949954 120.93023732 -90.5078125 108.890625 C-91.75 107.3125 -91.75 107.3125 -92.75 104.3125 C-90.17495963 99.87598466 -86.95788165 95.9372061 -83.6875 92 C-83.0368457 91.1946582 -83.0368457 91.1946582 -82.37304688 90.37304688 C-80.20605647 87.75748616 -79.03755149 86.4083505 -75.75 85.3125 C-75.36070312 85.80878906 -74.97140625 86.30507812 -74.5703125 86.81640625 C-66.77379475 96.28360637 -57.90374487 102.03874818 -45.75 104.3125 C-36.49529687 105.13182985 -27.86281488 105.37653234 -20.3125 99.375 C-17.14726227 95.1968862 -17.22503923 90.41893656 -17.75 85.3125 C-19.43006817 80.00702157 -21.24155793 77.48199299 -25.75 74.3125 C-28.29165783 73.19312385 -28.29165783 73.19312385 -31.125 72.4375 C-32.25550781 72.1075 -33.38601563 71.7775 -34.55078125 71.4375 C-37.78558454 70.55112054 -41.03640598 69.73992941 -44.29296875 68.9375 C-59.32714257 65.21436512 -73.34520461 61.73727398 -83.75 49.3125 C-89.19321599 40.13177626 -90.91478821 30.58366487 -88.625 20.1875 C-85.46292928 9.26141637 -80.07139652 1.86619574 -70.33203125 -4.19140625 C-49.86427005 -15.09236015 -18.43401455 -15.47427748 0 0 Z " fill="#FDFDFD" transform="translate(620.75,988.6875)"/>
<path d="M0 0 C0.78681152 0.00418945 1.57362305 0.00837891 2.38427734 0.01269531 C8.67781982 0.13419726 14.29002854 1.02511647 20.1875 3.3125 C20.90035156 3.56773437 21.61320313 3.82296875 22.34765625 4.0859375 C31.77643431 8.04638763 36.7703918 16.68216266 41.05859375 25.515625 C42.95234225 30.20740329 43.30996864 34.45136583 43.28515625 39.48828125 C43.28032227 41.22368164 43.28032227 41.22368164 43.27539062 42.99414062 C43.26282227 44.79141602 43.26282227 44.79141602 43.25 46.625 C43.24548828 47.84251953 43.24097656 49.06003906 43.23632812 50.31445312 C43.22456578 53.31385226 43.20812826 56.31315089 43.1875 59.3125 C42.37539566 59.32280746 41.56329132 59.33311493 40.72657776 59.34373474 C33.08913512 59.44153979 25.45177678 59.54402948 17.81446934 59.65183926 C13.88765386 59.70710415 9.96083099 59.7605297 6.03393555 59.80981445 C2.24729158 59.85740561 -1.53925916 59.90974624 -5.32579231 59.96544075 C-6.77351638 59.98588818 -8.22126603 60.00459724 -9.66903496 60.02157402 C-11.69014159 60.04556508 -13.7111661 60.07620075 -15.73217773 60.10717773 C-16.88467514 60.12272202 -18.03717255 60.1382663 -19.22459412 60.15428162 C-21.74220589 60.02132632 -21.74220589 60.02132632 -22.8125 61.3125 C-22.87639852 67.26784234 -21.79233633 72.75439686 -17.8125 77.3125 C-11.41969549 82.37948673 -6.05829206 83.5029743 2 83.5625 C2.68642578 83.583125 3.37285156 83.60375 4.08007812 83.625 C9.98027441 83.66965617 14.88258745 82.50643528 19.296875 78.3046875 C19.83828125 77.60601563 20.3796875 76.90734375 20.9375 76.1875 C23.89989669 72.40836777 23.89989669 72.40836777 27.1875 71.3125 C30 72.859375 30 72.859375 33.1875 75.0625 C34.239375 75.77921875 35.29125 76.4959375 36.375 77.234375 C41.09497493 80.72191203 41.09497493 80.72191203 42.1875 82.3125 C41.89852471 88.14793648 38.07358891 91.35124496 34.1875 95.3125 C33.55199219 95.96089844 32.91648437 96.60929687 32.26171875 97.27734375 C27.65133963 101.64750271 23.35859042 103.8722096 17.1875 105.3125 C16.465625 105.49425781 15.74375 105.67601562 15 105.86328125 C-1.12231457 108.43837316 -18.929552 106.74550443 -32.48046875 97.15625 C-43.71497932 88.27402389 -49.12343828 76.45278659 -50.8125 62.3125 C-51.82654204 46.90238568 -49.65545376 32.34859146 -40.8125 19.3125 C-40.28398438 18.52359375 -39.75546875 17.7346875 -39.2109375 16.921875 C-30.21982644 5.27699988 -14.2993163 -0.10471177 0 0 Z " fill="#FDFDFD" transform="translate(880.8125,1010.6875)"/>
<path d="M0 0 C7.93877725 6.55748817 11.58564238 14.22947532 12.5703125 24.38671875 C12.76181791 28.47797927 12.82578615 32.56902072 12.88671875 36.6640625 C12.90749985 37.83054825 12.92828094 38.997034 12.94969177 40.1988678 C13.01482161 43.90726099 13.07390167 47.61572207 13.1328125 51.32421875 C13.17603251 53.84571001 13.2196479 56.36719452 13.26367188 58.88867188 C13.37046534 65.05461674 13.4722982 71.22062842 13.5703125 77.38671875 C14.28058594 77.44730469 14.99085938 77.50789063 15.72265625 77.5703125 C17.10130859 77.69599609 17.10130859 77.69599609 18.5078125 77.82421875 C19.88259766 77.94603516 19.88259766 77.94603516 21.28515625 78.0703125 C23.5703125 78.38671875 23.5703125 78.38671875 24.5703125 79.38671875 C25.74360221 85.38353282 25.6694792 91.29347624 25.5703125 97.38671875 C18.31698838 100.1577756 9.05633047 101.11302452 1.6328125 98.26171875 C-3.64964282 95.02756243 -7.81538538 91.42714611 -11.4296875 86.38671875 C-11.86539063 86.9178125 -12.30109375 87.44890625 -12.75 87.99609375 C-19.18493855 95.628878 -25.00095733 99.81792164 -35.2265625 100.72265625 C-46.44006354 100.8334616 -55.77128368 99.3976059 -64.77734375 92.0859375 C-70.04995516 86.66374846 -72.41006533 78.54246142 -72.8046875 71.13671875 C-72.56465691 62.84860378 -69.34031101 55.11712551 -63.58203125 49.1640625 C-55.47477714 42.46932454 -45.58136496 40.09692364 -35.55126953 37.86328125 C-31.89530843 37.04205731 -28.25641712 36.1536542 -24.6171875 35.26171875 C-23.60350098 35.02364502 -23.60350098 35.02364502 -22.56933594 34.78076172 C-19.35762365 33.99960101 -17.21782152 33.24547476 -14.4296875 31.38671875 C-13.98853412 28.82576521 -13.98853412 28.82576521 -14.1171875 25.94921875 C-14.12298828 24.49708984 -14.12298828 24.49708984 -14.12890625 23.015625 C-14.25336751 20.15663058 -14.25336751 20.15663058 -16.4296875 17.38671875 C-24.49214003 13.95588788 -32.57092399 15.43008774 -40.5546875 18.51171875 C-45.51787139 20.71255842 -49.50993645 23.46797901 -53.58984375 27.03125 C-55.4296875 28.38671875 -55.4296875 28.38671875 -58.4296875 28.38671875 C-63.11352624 24.46242143 -66.17919217 19.5137887 -69.4296875 14.38671875 C-64.31498908 4.72748501 -53.47539545 -0.36542079 -43.4296875 -3.61328125 C-29.76385759 -7.36910031 -12.20616008 -8.1047333 0 0 Z " fill="#FDFDFD" transform="translate(414.4296875,1016.61328125)"/>
<path d="M0 0 C6.19662614 4.86302942 10.00948756 11.84671101 11.60546875 19.52734375 C11.71320623 21.31305341 11.77111601 23.10207077 11.79492188 24.89086914 C11.8116394 25.96200455 11.82835693 27.03313995 11.84558105 28.13673401 C11.85915649 29.28786179 11.87273193 30.43898956 11.88671875 31.625 C11.90512817 32.81081161 11.9235376 33.99662323 11.94250488 35.21836853 C12.02119737 40.29530814 12.08898844 45.37238014 12.15771484 50.44946289 C12.20940543 54.15387598 12.2666636 57.85817415 12.32421875 61.5625 C12.33779419 62.71565201 12.35136963 63.86880402 12.36535645 65.05690002 C12.38207397 66.12488327 12.3987915 67.19286652 12.41601562 68.29321289 C12.4285437 69.23379044 12.44107178 70.17436798 12.45397949 71.14344788 C12.51299773 73.67564175 12.51299773 73.67564175 13.60546875 76.52734375 C14.67087891 76.70910156 14.67087891 76.70910156 15.7578125 76.89453125 C16.67691406 77.06210938 17.59601563 77.2296875 18.54296875 77.40234375 C19.45949219 77.56476563 20.37601563 77.7271875 21.3203125 77.89453125 C22.07441406 78.10335938 22.82851563 78.3121875 23.60546875 78.52734375 C25.25526945 81.82694516 24.98805236 85.51862259 25.16796875 89.15234375 C25.21115234 89.95414063 25.25433594 90.7559375 25.29882812 91.58203125 C25.40498332 93.56359485 25.5057373 95.54544646 25.60546875 97.52734375 C16.14156572 100.52285404 6.65223701 101.05072788 -2.39453125 96.52734375 C-6.66404484 93.77587944 -8.26994386 91.08003102 -10.39453125 86.52734375 C-11.38453125 86.03234375 -11.38453125 86.03234375 -12.39453125 85.52734375 C-12.67425781 86.11515625 -12.95398438 86.70296875 -13.2421875 87.30859375 C-16.69388413 93.95457234 -20.95917069 97.59871855 -28.12890625 99.87109375 C-37.47720581 101.7496994 -47.69113934 101.72587442 -56.39453125 97.52734375 C-57.02746094 97.23730469 -57.66039062 96.94726562 -58.3125 96.6484375 C-65.38528881 93.04418051 -68.99635679 87.60810301 -71.6640625 80.3671875 C-73.95337926 71.46700949 -73.07348643 62.47754553 -68.39453125 54.52734375 C-60.54096762 43.85140569 -47.87506356 40.68140522 -35.48388672 37.98339844 C-31.8392424 37.18786261 -28.21000159 36.33276143 -24.58203125 35.46484375 C-23.9060791 35.31442627 -23.23012695 35.16400879 -22.53369141 35.0090332 C-17.73116432 33.89716244 -17.73116432 33.89716244 -14.39453125 30.52734375 C-13.64917866 26.55943733 -13.82612406 22.75889266 -15.51953125 19.08984375 C-19.92361175 15.41977667 -24.85589119 15.06579041 -30.39453125 15.52734375 C-39.67149713 17.30206766 -48.72043039 21.8328328 -55.39453125 28.52734375 C-56.05453125 28.52734375 -56.71453125 28.52734375 -57.39453125 28.52734375 C-57.72453125 29.18734375 -58.05453125 29.84734375 -58.39453125 30.52734375 C-58.39453125 29.53734375 -58.39453125 28.54734375 -58.39453125 27.52734375 C-59.26464844 27.19863281 -59.26464844 27.19863281 -60.15234375 26.86328125 C-63.11368751 25.09885692 -64.40554538 23.03726794 -66.26953125 20.15234375 C-66.90632812 19.19585938 -67.543125 18.239375 -68.19921875 17.25390625 C-69.39453125 14.52734375 -69.39453125 14.52734375 -68.76171875 12.3515625 C-61.79758778 3.05942203 -48.91066683 -2.65536789 -37.78515625 -5.03515625 C-25.04009681 -6.67968005 -11.28589929 -6.94092012 0 0 Z " fill="#FDFDFD" transform="translate(719.39453125,1016.47265625)"/>
<path d="M0 0 C1.32064453 0.00519653 1.32064453 0.00519653 2.66796875 0.01049805 C10.86432283 0.14786287 17.59005243 1.10496365 24.125 6.3125 C22.82524676 13.02789173 20.82571112 19.03269113 18.125 25.3125 C17.60292969 25.0959375 17.08085938 24.879375 16.54296875 24.65625 C9.23059821 21.89009932 2.10945626 20.88947991 -5.375 23.5625 C-9.26878957 26.2881527 -10.60321291 27.97827248 -11.5625 32.6875 C-11.84149613 35.9238551 -11.89785045 39.06773678 -11.875 42.3125 C-10.56511108 42.35008423 -10.56511108 42.35008423 -9.22875977 42.38842773 C-5.99897448 42.48337709 -2.76935846 42.58262029 0.46020508 42.68481445 C1.85989199 42.72821434 3.25963359 42.76988564 4.65942383 42.80981445 C6.66761495 42.86739445 8.67561149 42.93164 10.68359375 42.99609375 C11.89329834 43.03275146 13.10300293 43.06940918 14.34936523 43.10717773 C17.125 43.3125 17.125 43.3125 18.125 44.3125 C18.21151611 45.72820123 18.23204904 47.148095 18.22265625 48.56640625 C18.21782227 49.84741211 18.21782227 49.84741211 18.21289062 51.15429688 C18.20032227 52.50104492 18.20032227 52.50104492 18.1875 53.875 C18.18298828 54.77669922 18.17847656 55.67839844 18.17382812 56.60742188 C18.16200225 58.84251314 18.1455222 61.07747437 18.125 63.3125 C17.31232666 63.33755615 16.49965332 63.3626123 15.66235352 63.38842773 C12.00389248 63.50399118 8.34571472 63.62689584 4.6875 63.75 C3.40810547 63.78931641 2.12871094 63.82863281 0.81054688 63.86914062 C-0.40439453 63.91103516 -1.61933594 63.95292969 -2.87109375 63.99609375 C-4.55996704 64.05108032 -4.55996704 64.05108032 -6.28295898 64.10717773 C-8.80353441 64.02468045 -8.80353441 64.02468045 -9.875 65.3125 C-9.99997615 67.80649065 -10.0610288 70.27418329 -10.08032227 72.76977539 C-10.09022186 73.55020706 -10.10012146 74.33063873 -10.11032104 75.13471985 C-10.14202775 77.72650063 -10.1667295 80.31829977 -10.19140625 82.91015625 C-10.21196787 84.70235178 -10.23296413 86.49454237 -10.25437927 88.28672791 C-10.30968176 93.0131532 -10.35905483 97.73962285 -10.40722656 102.46612549 C-10.45738205 107.28540005 -10.51309911 112.10460988 -10.56835938 116.92382812 C-10.67604089 126.38666351 -10.77746351 135.84955499 -10.875 145.3125 C-15.02081887 145.34136751 -19.16661216 145.35925327 -23.3125 145.375 C-24.49650391 145.38337891 -25.68050781 145.39175781 -26.90039062 145.40039062 C-28.02509766 145.40361328 -29.14980469 145.40683594 -30.30859375 145.41015625 C-31.87178345 145.41801147 -31.87178345 145.41801147 -33.46655273 145.42602539 C-35.875 145.3125 -35.875 145.3125 -36.875 144.3125 C-36.99997615 141.81850935 -37.0610288 139.35081671 -37.08032227 136.85522461 C-37.09022186 136.07479294 -37.10012146 135.29436127 -37.11032104 134.49028015 C-37.14202775 131.89849937 -37.1667295 129.30670023 -37.19140625 126.71484375 C-37.21196787 124.92264822 -37.23296413 123.13045763 -37.25437927 121.33827209 C-37.30968176 116.6118468 -37.35905483 111.88537715 -37.40722656 107.15887451 C-37.45738205 102.33959995 -37.51309911 97.52039012 -37.56835938 92.70117188 C-37.67604089 83.23833649 -37.77746351 73.77544501 -37.875 64.3125 C-38.72964844 64.25191406 -39.58429687 64.19132812 -40.46484375 64.12890625 C-41.56957031 64.04511719 -42.67429687 63.96132812 -43.8125 63.875 C-44.91464844 63.79378906 -46.01679687 63.71257812 -47.15234375 63.62890625 C-49.875 63.3125 -49.875 63.3125 -50.875 62.3125 C-51.00163091 59.48833618 -51.06020548 56.69955207 -51.0625 53.875 C-51.07474609 53.08544922 -51.08699219 52.29589844 -51.09960938 51.48242188 C-51.10487279 49.42442565 -50.99706285 47.36687991 -50.875 45.3125 C-48.875 43.3125 -48.875 43.3125 -46.0546875 43.1171875 C-44.96414063 43.14039063 -43.87359375 43.16359375 -42.75 43.1875 C-41.65429688 43.20554687 -40.55859375 43.22359375 -39.4296875 43.2421875 C-38.58664062 43.26539063 -37.74359375 43.28859375 -36.875 43.3125 C-37.37 41.8275 -37.37 41.8275 -37.875 40.3125 C-38.6474852 29.15578758 -37.92943769 20.7013109 -31.8125 11.0625 C-23.62518618 2.16764054 -11.48851882 -0.07322401 0 0 Z " fill="#FDFDFD" transform="translate(801.875,969.6875)"/>
<path d="M0 0 C0 7.26 0 14.52 0 22 C3.01447266 22.09087891 3.01447266 22.09087891 6.08984375 22.18359375 C8.02922669 22.24615449 9.96860873 22.30874857 11.90795898 22.37231445 C13.25914147 22.41571223 14.61038053 22.4573837 15.96166992 22.49731445 C17.90036701 22.55489952 19.83886276 22.61914298 21.77734375 22.68359375 C22.94515381 22.72025146 24.11296387 22.75690918 25.31616211 22.79467773 C28 23 28 23 29 24 C29.08651611 25.41570123 29.10704904 26.835595 29.09765625 28.25390625 C29.09282227 29.53491211 29.09282227 29.53491211 29.08789062 30.84179688 C29.07532227 32.18854492 29.07532227 32.18854492 29.0625 33.5625 C29.05798828 34.46419922 29.05347656 35.36589844 29.04882812 36.29492188 C29.03700225 38.53001314 29.0205222 40.76497437 29 43 C28.18732666 43.02505615 27.37465332 43.0501123 26.53735352 43.07592773 C22.87889248 43.19149118 19.22071472 43.31439584 15.5625 43.4375 C14.28310547 43.47681641 13.00371094 43.51613281 11.68554688 43.55664062 C10.47060547 43.59853516 9.25566406 43.64042969 8.00390625 43.68359375 C6.31503296 43.73858032 6.31503296 43.73858032 4.59204102 43.79467773 C2.07146559 43.71218045 2.07146559 43.71218045 1 45 C0.89114871 46.53313087 0.85095836 48.07121166 0.83886719 49.6081543 C0.82925964 50.58975021 0.8196521 51.57134613 0.80975342 52.58268738 C0.8033786 54.18724541 0.8033786 54.18724541 0.796875 55.82421875 C0.78832489 57.46545464 0.78832489 57.46545464 0.77960205 59.1398468 C0.77013284 61.46260608 0.76361048 63.7853789 0.75976562 66.1081543 C0.7500886 69.6550262 0.71909455 73.20131185 0.6875 76.74804688 C0.68096741 79.00260072 0.67571795 81.25715872 0.671875 83.51171875 C0.6595282 84.57130295 0.6471814 85.63088715 0.63446045 86.72257996 C0.65094131 92.19967352 0.77119557 96.33790526 4 101 C7.6559394 103.43729293 9.52700788 103.26838474 13.875 103.25 C15.08929688 103.25515625 16.30359375 103.2603125 17.5546875 103.265625 C20.82444211 103.01353508 23.06519555 102.40602799 26 101 C32.9940497 116.27826391 32.9940497 116.27826391 32 121 C25.63835554 126.5664389 17.7449254 127.37750398 9.625 127.3125 C8.88185547 127.30686035 8.13871094 127.3012207 7.37304688 127.29541016 C-2.36743276 127.08098373 -10.56947427 124.53475089 -18 118 C-26.31388314 107.84084036 -26.120921 95.47018661 -26.31640625 82.96484375 C-26.33718735 81.84557999 -26.35796844 80.72631622 -26.37937927 79.57313538 C-26.44431361 76.02798084 -26.50349666 72.4827577 -26.5625 68.9375 C-26.60573869 66.52147752 -26.64935461 64.10546177 -26.69335938 61.68945312 C-26.79993678 55.79303947 -26.90180317 49.89655887 -27 44 C-28.39025391 43.90912109 -28.39025391 43.90912109 -29.80859375 43.81640625 C-31.00613281 43.73261719 -32.20367187 43.64882812 -33.4375 43.5625 C-34.63246094 43.48128906 -35.82742188 43.40007812 -37.05859375 43.31640625 C-40 43 -40 43 -41 42 C-41.12663091 39.17583618 -41.18520548 36.38705207 -41.1875 33.5625 C-41.19974609 32.77294922 -41.21199219 31.98339844 -41.22460938 31.16992188 C-41.22987279 29.11192565 -41.12206285 27.05437991 -41 25 C-39 23 -39 23 -35.9609375 22.8046875 C-34.18589844 22.83949219 -34.18589844 22.83949219 -32.375 22.875 C-30.59222656 22.90207031 -30.59222656 22.90207031 -28.7734375 22.9296875 C-27.85820312 22.95289063 -26.94296875 22.97609375 -26 23 C-26.03480469 21.73542969 -26.06960938 20.47085938 -26.10546875 19.16796875 C-26.13360677 17.50782577 -26.16090691 15.84766844 -26.1875 14.1875 C-26.21263672 13.35412109 -26.23777344 12.52074219 -26.26367188 11.66210938 C-26.27333984 10.85966797 -26.28300781 10.05722656 -26.29296875 9.23046875 C-26.31653442 8.12288208 -26.31653442 8.12288208 -26.34057617 6.99291992 C-25.89567628 4.38953795 -25.09923024 3.56932746 -23 2 C-21.08642578 1.36816406 -21.08642578 1.36816406 -18.9453125 1.015625 C-18.16542969 0.88542969 -17.38554687 0.75523437 -16.58203125 0.62109375 C-15.77121094 0.49863281 -14.96039063 0.37617187 -14.125 0.25 C-12.92037109 0.04310547 -12.92037109 0.04310547 -11.69140625 -0.16796875 C-7.18685695 -0.88780612 -4.66505671 -0.93301134 0 0 Z " fill="#FDFDFD" transform="translate(487,990)"/>
<path d="M0 0 C1.20308807 0.00136711 1.20308807 0.00136711 2.43048096 0.00276184 C3.25687073 -0.00152328 4.0832605 -0.00580841 4.93469238 -0.01022339 C6.68653446 -0.01597312 8.43840042 -0.01646223 10.19024658 -0.01213074 C12.85928724 -0.00898557 15.52720365 -0.03236927 18.19610596 -0.05778503 C19.89922956 -0.06005958 21.60235614 -0.0607608 23.30548096 -0.05973816 C24.09944275 -0.06894791 24.89340454 -0.07815765 25.71142578 -0.08764648 C30.58881213 -0.04734801 33.90155595 0.62716186 38.13360596 3.30354309 C44.50834984 9.96804806 45.54622336 15.14079933 45.38360596 24.13557434 C44.96055006 29.4964858 43.70237721 32.73477183 39.82110596 36.61604309 C34.15907987 40.17126877 29.01211132 40.59439197 22.52423096 40.53401184 C21.71621033 40.53355362 20.9081897 40.5330954 20.07568359 40.53262329 C18.37801636 40.5296163 16.6803515 40.52177685 14.98272705 40.50935364 C12.37797343 40.49100341 9.77357398 40.48884483 7.16876221 40.48908997 C5.51641537 40.48417763 3.86407094 40.47835055 2.21173096 40.47151184 C1.43154602 40.47039902 0.65136108 40.46928619 -0.15246582 40.46813965 C-5.63417836 40.41965093 -5.63417836 40.41965093 -7.86639404 39.30354309 C-7.91575229 34.07080978 -7.95209353 28.83821133 -7.97625732 23.6053009 C-7.98632836 21.82435242 -7.99998589 20.04342052 -8.01727295 18.26252747 C-8.04147317 15.70584526 -8.05286588 13.14938124 -8.06170654 10.59260559 C-8.07202911 9.79359833 -8.08235168 8.99459106 -8.09298706 8.17137146 C-8.09338631 6.2139709 -7.98880473 4.25711233 -7.86639404 2.30354309 C-5.28631848 -0.27653248 -3.51790204 0.04523672 0 0 Z " fill="#FC3230" transform="translate(253.86639404296875,1053.6964569091797)"/>
<path d="M0 0 C0 23.1 0 46.2 0 70 C-23.76 70 -47.52 70 -72 70 C-72 69.34 -72 68.68 -72 68 C-71.30132813 67.87882812 -70.60265625 67.75765625 -69.8828125 67.6328125 C-68.97273438 67.46523437 -68.06265625 67.29765625 -67.125 67.125 C-66.22007813 66.96257812 -65.31515625 66.80015625 -64.3828125 66.6328125 C-61.83494012 66.16955297 -61.83494012 66.16955297 -60 64 C-58.00458132 63.31974363 -56.00382009 62.65509503 -54 62 C-49.90164624 60.18857486 -49.90164624 60.18857486 -46.4375 57.4375 C-44.54304116 55.54304116 -42.47084799 54.9883392 -40 54 C-38.97895449 53.02149805 -37.9793879 52.02019573 -37 51 C-36.29230469 50.62101562 -35.58460937 50.24203125 -34.85546875 49.8515625 C-30.96903984 47.33149779 -28.00871872 44.14231198 -24.8125 40.8125 C-23.57367266 39.52284898 -22.33040242 38.23744617 -21.08203125 36.95703125 C-20.53780518 36.38960205 -19.9935791 35.82217285 -19.43286133 35.23754883 C-18 34 -18 34 -16 34 C-15.814375 32.8553125 -15.814375 32.8553125 -15.625 31.6875 C-15 29 -15 29 -13 26 C-12.34 26 -11.68 26 -11 26 C-11 24.35 -11 22.7 -11 21 C-10.01 20.67 -9.02 20.34 -8 20 C-8.495 19.01 -8.495 19.01 -9 18 C-8.67 17.34 -8.34 16.68 -8 16 C-7.34 16 -6.68 16 -6 16 C-6.04125 15.05125 -6.0825 14.1025 -6.125 13.125 C-6 10 -6 10 -4 8 C-3.835 6.824375 -3.67 5.64875 -3.5 4.4375 C-3.335 3.303125 -3.17 2.16875 -3 1 C-1 0 -1 0 0 0 Z " fill="#000000" transform="translate(1280,1210)"/>
<path d="M0 0 C24.09 0 48.18 0 73 0 C73 22.44 73 44.88 73 68 C71.02 67.01 71.02 67.01 69 66 C68.3125 63.4375 68.3125 63.4375 68 61 C67.67 60.67 67.34 60.34 67 60 C66.95919217 58.00041636 66.95745644 55.99954746 67 54 C66.34 54 65.68 54 65 54 C64.67 53.01 64.34 52.02 64 51 C64.33 50.67 64.66 50.34 65 50 C64.01 49.34 63.02 48.68 62 48 C62 46.68 62 45.36 62 44 C61.34 44 60.68 44 60 44 C57.25624329 41.04518508 57 40.22528092 57 36 C56.12927856 35.61714844 56.12927856 35.61714844 55.2409668 35.2265625 C52.77123023 33.874786 51.12670356 32.36983874 49.14453125 30.375 C48.44005859 29.66859375 47.73558594 28.9621875 47.00976562 28.234375 C45.92211914 27.12835937 45.92211914 27.12835937 44.8125 26 C44.07580078 25.26265625 43.33910156 24.5253125 42.58007812 23.765625 C37.14050904 18.28101809 37.14050904 18.28101809 36 16 C34.845 15.505 33.69 15.01 32.5 14.5 C29 13 29 13 28 11 C25.97536745 10.34786708 25.97536745 10.34786708 24 10 C24 9.34 24 8.68 24 8 C23.236875 8.061875 22.47375 8.12375 21.6875 8.1875 C18.44363031 7.96118351 18.16055611 7.25057928 16 5 C13.51599015 4.33652369 13.51599015 4.33652369 11 4 C10.01 3.67 9.02 3.34 8 3 C5.66700175 2.96045766 3.33291811 2.95598268 1 3 C0.67 2.01 0.34 1.02 0 0 Z " fill="#000000" transform="translate(1207,0)"/>
<path d="M0 0 C3 1 3 1 5 4 C5.309375 4.99 5.61875 5.98 5.9375 7 C7.00271963 10.00767895 7.78720096 10.87940092 10 13 C10.309375 13.78375 10.61875 14.5675 10.9375 15.375 C12.16427851 18.40586456 13.95162575 20.47367176 16 23 C16 23.66 16 24.32 16 25 C18.36514041 27.16241409 20.29704697 28.77801483 23.375 29.75 C26.94636802 31.45065144 28.7367629 34.08835352 31.2265625 37.10546875 C33.49176849 39.52534739 36.0205658 40.61421665 39 42 C39.66666667 43.33333333 40.33333333 44.66666667 41 46 C43.35367713 46.6878236 43.35367713 46.6878236 46 47 C47.67889021 47.63525576 49.34416775 48.30686092 51 49 C53.66185964 50.01309583 56.33133307 51.00490386 59 52 C59 52.66 59 53.32 59 54 C61.64 54 64.28 54 67 54 C67.33 54.99 67.66 55.98 68 57 C45.56 57 23.12 57 0 57 C0 38.19 0 19.38 0 0 Z " fill="#000000" transform="translate(0,1223)"/>
<path d="M0 0 C1.58982274 0.03230116 3.17966845 0.06348491 4.76953125 0.09375 C6.45058016 0.14388198 8.131572 0.19596552 9.8125 0.25 C10.61236328 0.26385742 11.41222656 0.27771484 12.23632812 0.29199219 C17.89619797 0.52998005 21.32749551 1.76103668 26 5 C30.12729674 10.50306232 30.61040403 16.3081632 30 23 C28.75790319 27.20932807 27.77024185 29.35742175 24.39575195 32.17260742 C20.39631408 34.32486801 17.21440369 34.53160934 12.79296875 34.42578125 C12.02696854 34.42249313 11.26096832 34.41920502 10.47175598 34.41581726 C8.86397717 34.40544688 7.25623425 34.38558311 5.64868164 34.35668945 C3.17768984 34.31232386 0.70767029 34.29520588 -1.76367188 34.28320312 C-3.32813916 34.26979006 -4.89259442 34.25487014 -6.45703125 34.23828125 C-7.56942924 34.22720085 -7.56942924 34.22720085 -8.70429993 34.21589661 C-13.88164327 34.11835673 -13.88164327 34.11835673 -15 33 C-15.24221218 28.76128682 -15.22851631 24.51684019 -15.24023438 20.27197266 C-15.24992926 18.14055196 -15.28093407 16.01009992 -15.3125 13.87890625 C-15.319031 12.52604741 -15.32428109 11.17318165 -15.328125 9.8203125 C-15.3374707 8.58555176 -15.34681641 7.35079102 -15.35644531 6.07861328 C-15 3 -15 3 -13.62011719 1.09423828 C-9.86179106 -1.44416101 -4.32736557 -0.17789787 0 0 Z " fill="#FC3230" transform="translate(261,999)"/>
<path d="M0 0 C21.78 0 43.56 0 66 0 C66 0.66 66 1.32 66 2 C64.0636296 2.50435694 62.12585854 3.00333874 60.1875 3.5 C59.10855469 3.7784375 58.02960937 4.056875 56.91796875 4.34375 C54 5 54 5 51 5 C51 5.66 51 6.32 51 7 C50.34773438 7.24234375 49.69546875 7.4846875 49.0234375 7.734375 C43.86397458 9.7129301 39.51538698 11.83922911 35 15 C34.34 15 33.68 15 33 15 C33 15.66 33 16.32 33 17 C32.12859375 17.38414063 31.2571875 17.76828125 30.359375 18.1640625 C26.76057673 20.1308476 24.0841036 22.47024008 21.25 25.375 C20.52876953 26.07882813 20.52876953 26.07882813 19.79296875 26.796875 C16.91409944 29.69980172 15.4298257 32.2174611 14 36 C13.01 36.66 12.02 37.32 11 38 C9.96567096 39.98246398 8.96761608 41.98413316 8 44 C7.505 44.639375 7.01 45.27875 6.5 45.9375 C5.09918631 47.86361883 4.32338343 49.49727563 3.4375 51.6875 C2 55 2 55 0 56 C0 37.52 0 19.04 0 0 Z " fill="#000000" transform="translate(0,0)"/>
<path d="M0 0 C0.68946015 20.81148243 0.68946015 20.81148243 -4.6171875 26.8359375 C-9.87437784 31.64186687 -14.38106538 32.35127753 -21.390625 32.2890625 C-25.40813401 31.84400911 -28.74591186 30.38473617 -32 28 C-34.98444969 23.52332547 -34.46991294 19.24607724 -34 14 C-32.67922208 10.12021485 -31.30297088 9.19996078 -27.875 6.9375 C-22.14815835 4.29434232 -15.86249461 3.1704413 -9.73046875 1.83203125 C-1.51643192 0 -1.51643192 0 0 0 Z " fill="#FC3230" transform="translate(707,1066)"/>
<path d="M0 0 C0.66 0.33 1.32 0.66 2 1 C2.64494694 22.02049272 2.64494694 22.02049272 -2.6171875 27.765625 C-7.70988307 32.44303638 -11.87163777 33.30121258 -18.68359375 33.22265625 C-23.01744154 32.80608066 -26.50752119 31.24373234 -29.875 28.4375 C-32.82025952 24.67411284 -32.53292067 20.58002832 -32 16 C-29.37873532 10.21137382 -25.59964628 8.33269444 -20 6 C-16.72136139 4.95185628 -13.40849746 4.11605615 -10.0625 3.3125 C-8.36516798 2.89483191 -6.66851024 2.47441065 -4.97265625 2.05078125 C-4.23281494 1.87200439 -3.49297363 1.69322754 -2.73071289 1.5090332 C-0.98648097 1.14609835 -0.98648097 1.14609835 0 0 Z " fill="#FC3230" transform="translate(400,1065)"/>
<path d="M0 0 C6.35657395 5.2547678 6.87381074 11.49710915 7.7578125 19.453125 C-6.1021875 19.453125 -19.9621875 19.453125 -34.2421875 19.453125 C-35.2421875 17.453125 -35.2421875 17.453125 -34.60546875 15.24609375 C-31.28652446 7.01659248 -28.24158025 2.45282138 -20.2421875 -1.546875 C-13.50379552 -3.61495872 -6.18462135 -3.5555313 0 0 Z " fill="#FC3230" transform="translate(892.2421875,1033.546875)"/>
</svg>
